<svg id="Component_52_32" data-name="Component 52 – 32" xmlns="http://www.w3.org/2000/svg" width="101.215" height="32.123" viewBox="0 0 101.215 32.123">
  <g id="Group_147" data-name="Group 147" transform="translate(41.484 0.83)">
    <path id="Path_401" data-name="Path 401" d="M426.985,79.085V95.429h-2.156v-3.2a7.59,7.59,0,0,1-6.6,3.593,8.563,8.563,0,0,1,0-17.124,7.578,7.578,0,0,1,6.6,3.593V79.085Zm-2.156,8.167a6.442,6.442,0,1,0-6.447,6.467A6.377,6.377,0,0,0,424.829,87.252Z" transform="translate(-409.8 -71.565)" fill="#0078ff"/>
    <path id="Path_402" data-name="Path 402" d="M614.4,18.769a1.569,1.569,0,1,1,1.569,1.569A1.57,1.57,0,0,1,614.4,18.769Zm.5,5.04h2.156V40.153H614.9Z" transform="translate(-593.693 -16.289)" fill="#0078ff"/>
    <path id="Path_403" data-name="Path 403" d="M687.617,79.9v2.095c-2.611,0-5.161,1.376-5.161,5.425v9.088H680.3V80.163h2.156v2.712A5.279,5.279,0,0,1,687.617,79.9Z" transform="translate(-652.924 -72.644)" fill="#0078ff"/>
    <path id="Path_404" data-name="Path 404" d="M788.2,8.2h2.156V32.054H788.2Z" transform="translate(-749.904 -8.2)" fill="#0078ff"/>
    <path id="Path_405" data-name="Path 405" d="M857.811,82.5l-6.993,17.842c-1.245,3.137-3.664,5.263-6.6,5.03v-2.024c2.125.233,3.593-1.275,4.473-3.4l.425-1.012L841.8,82.5h2.287l6.143,13.693L855.523,82.5Z" transform="translate(-798.079 -74.98)" fill="#0078ff"/>
  </g>
  <g id="Group_148" data-name="Group 148">
    <path id="Path_406" data-name="Path 406" d="M97.9,6.447a7.258,7.258,0,0,0,1.053-.152c3.087-.627,4.321-3.208,3.573-6.295l-2.186.445C100.977,3.522,99.145,6.194,97.9,6.447Z" transform="translate(-87.982)" fill="#0078ff"/>
    <path id="Path_407" data-name="Path 407" d="M33.294,55.5A8.424,8.424,0,0,0,34,54.715c1.953-2.469,1.245-5.232-1.316-7.115L31.3,49.341C33.759,51.284,34.073,54.512,33.294,55.5Z" transform="translate(-28.122 -42.783)" fill="#0078ff"/>
    <path id="Path_408" data-name="Path 408" d="M5.456,152.82a7.806,7.806,0,0,0,.03-1.063c-.091-3.147-2.419-4.807-5.587-4.6l.061,2.227C3.108,149.288,5.426,151.565,5.456,152.82Z" transform="translate(0.1 -132.245)" fill="#0078ff"/>
    <path id="Path_409" data-name="Path 409" d="M37.594,237.963a8.293,8.293,0,0,0-.658-.84c-2.085-2.348-4.939-2.135-7.236.061l1.478,1.67C33.526,236.768,36.754,237.021,37.594,237.963Z" transform="translate(-26.684 -211.619)" fill="#0078ff"/>
    <path id="Path_410" data-name="Path 410" d="M126.648,267.449a9.512,9.512,0,0,0-1.042-.223c-3.107-.455-5.151,1.538-5.506,4.7l2.206.324C122.762,269.149,125.4,267.267,126.648,267.449Z" transform="translate(-107.935 -240.124)" fill="#0078ff"/>
    <path id="Path_411" data-name="Path 411" d="M221.336,227.9a8.388,8.388,0,0,0-.941.506c-2.682,1.65-2.955,4.494-1.194,7.135l1.893-1.164C219.444,231.7,220.254,228.558,221.336,227.9Z" transform="translate(-196.005 -204.835)" fill="#0078ff"/>
    <path id="Path_412" data-name="Path 412" d="M267.008,153.6a6.582,6.582,0,0,0-.395.992c-.992,2.986.627,5.344,3.674,6.234l.7-2.115C268,157.719,266.6,154.794,267.008,153.6Z" transform="translate(-239.359 -138.055)" fill="#0078ff"/>
    <path id="Path_413" data-name="Path 413" d="M242.9,81.9a6.478,6.478,0,0,0,.334,1.012c1.154,2.925,3.917,3.694,6.821,2.419l-.82-2.075C246.311,84.42,243.366,83.074,242.9,81.9Z" transform="translate(-218.307 -73.611)" fill="#0078ff"/>
    <path id="Path_414" data-name="Path 414" d="M173.7,19.526a7.677,7.677,0,0,0,.9.567c2.763,1.5,5.374.314,6.781-2.53L179.418,16.5C177.94,19.263,174.813,20.133,173.7,19.526Z" transform="translate(-156.111 -14.83)" fill="#0078ff"/>
  </g>
</svg>
